Coordinates
version=1
nRows=15
nColumns=42
inDegrees=yes

Units are S.I. units (second, meters, Newtons, ...)
If the header above contains a line with 'inDegrees', this indicates whether rotational values are in degrees (yes) or radians (no).

endheader
time	pelvis_tilt	pelvis_list	pelvis_rotation	pelvis_tx	pelvis_ty	pelvis_tz	hip_flexion_r	hip_adduction_r	hip_rotation_r	knee_angle_r	knee_adduction_r	knee_angle_r_beta	ankle_angle_r	subtalar_angle_r	mtp_angle_r	hip_flexion_l	hip_adduction_l	hip_rotation_l	knee_angle_l	knee_adduction_l	knee_angle_l_beta	ankle_angle_l	subtalar_angle_l	mtp_angle_l	lumbar_extension	lumbar_bending	lumbar_rotation	arm_flex_r	arm_add_r	arm_rot_r	elbow_flex_r	pro_sup_r	wrist_flex_r	wrist_dev_r	arm_flex_l	arm_add_l	arm_rot_l	elbow_flex_l	pro_sup_l	wrist_flex_l	wrist_dev_l
      2.50000000	      1.26216071	     -8.85259485	     -3.45933987	     -1.22229199	      0.83088184	      0.33915562	      5.91169442	      8.67234148	    -26.08045028	     20.78147722	     -2.41070865	      0.36270520	     19.38530933	     29.16279701	     -7.54901567	     17.54321565	    -22.31059934	    -24.01811084	     56.61235485	    -10.71110097	      0.98807199	     19.07289178	     13.66008821	     -7.54901567	    -27.13421367	      9.79680935	      2.74720017	     -7.04538232	     -2.75982920	    -12.13532365	    104.44829332	     90.00000001	      0.00000000	      0.00000000	      3.10142893	     -7.54200311	    -19.14582629	     51.95549363	     90.00000001	      0.00000000	      0.00000000
      2.51000000	      1.04506572	     -8.70854394	     -3.70427969	     -1.22082979	      0.83045575	      0.33885185	      6.18531915	      8.39769168	    -26.43036437	     21.16012582	     -2.57348771	      0.36931387	     19.72748079	     30.36931383	     -7.54621237	     18.47839430	    -22.31342426	    -26.59141326	     55.18951364	    -12.16325211	      0.96323873	     20.45198062	     16.81121477	     -7.54621237	    -27.12249677	      9.56570974	      2.78326262	     -7.06351688	     -2.74390152	    -11.97174149	    104.48228250	     90.00000001	      0.00000000	      0.00000000	      3.19031871	     -7.61979494	    -18.96175824	     52.02117045	     90.00000001	      0.00000000	      0.00000000
      2.52000000	      0.76999174	     -8.79680403	     -3.70074921	     -1.21979077	      0.83004586	      0.33838311	      6.38903820	      8.49071291	    -26.45397926	     21.10464310	     -2.60221943	      0.36834551	     19.72963450	     30.34903415	     -7.54557118	     19.62498451	    -22.48282595	    -27.12633825	     54.01191636	    -12.11481112	      0.94268578	     20.85124656	     17.13846378	     -7.54557118	    -27.11101434	      9.64033154	      2.70706226	     -7.00766664	     -2.68809797	    -11.82693102	    104.58421443	     90.00000001	      0.00000000	      0.00000000	      3.37399670	     -7.67778340	    -18.90665303	     52.07736241	     90.00000001	      0.00000000	      0.00000000
      2.53000000	      0.46897851	     -8.82942624	     -3.84018495	     -1.21848883	      0.82948263	      0.33793287	      6.68398214	      8.43961858	    -26.56514306	     21.30841631	     -2.60668468	      0.37190202	     19.88060610	     30.55626920	     -7.54352704	     20.68696913	    -22.68115892	    -28.55099108	     52.66069688	    -12.55706296	      0.91910255	     21.53949702	     20.05894860	     -7.54352704	    -27.02156313	      9.62629934	      2.69393974	     -7.01445009	     -2.63278914	    -11.69251652	    104.66781389	     90.00000001	      0.00000000	      0.00000000	      3.47229012	     -7.74655374	    -18.85332026	     52.05092494	     90.00000001	      0.00000000	      0.00000000
      2.54000000	      0.23508330	     -8.96472777	     -3.84698280	     -1.21726113	      0.82908741	      0.33731749	      6.81184697	      8.52755695	    -26.56268125	     21.28647384	     -2.51214432	      0.37151905	     19.90970553	     30.42016868	     -7.54313038	     21.67501732	    -22.84770600	    -28.75939463	     51.42096694	    -12.14517637	      0.89746518	     21.65965403	     20.21774860	     -7.54313038	    -27.02076097	      9.73829473	      2.61472647	     -6.99452979	     -2.56459042	    -11.59697859	    104.77523972	     90.00000001	      0.00000000	      0.00000000	      3.57541246	     -7.80943207	    -18.81492926	     52.11086096	     90.00000001	      0.00000000	      0.00000000
      2.55000000	     -0.10991414	     -9.01282208	     -3.98234572	     -1.21582096	      0.82838987	      0.33665910	      7.14654882	      8.51740687	    -26.65789225	     21.44608496	     -2.58911636	      0.37430479	     20.09626916	     30.57292955	     -7.54147042	     22.73193720	    -22.95297748	    -30.09168747	     49.99753987	    -12.61089419	      0.87262169	     22.15337300	     23.98470178	     -7.54147042	    -26.83581951	      9.74791115	      2.58223070	     -7.05419864	     -2.58273422	    -11.49421848	    104.84336236	     90.00000001	      0.00000000	      0.00000000	      3.65724035	     -7.87589153	    -18.78926684	     51.95497257	     90.00000001	      0.00000000	      0.00000000
      2.56000000	     -0.32613620	     -9.16094890	     -4.00764591	     -1.21452064	      0.82798884	      0.33586267	      7.25812297	      8.61729744	    -26.57433050	     21.43290505	     -2.51469409	      0.37407476	     20.12993788	     30.43402592	     -7.54112924	     23.61691080	    -23.04000974	    -30.13929274	     48.78780456	    -12.13132572	      0.85150782	     22.17880929	     24.09886984	     -7.54112924	    -26.83767569	      9.85722693	      2.51832818	     -7.06767103	     -2.51107217	    -11.40523338	    104.93047714	     90.00000001	      0.00000000	      0.00000000	      3.75352271	     -7.91618631	    -18.74830557	     52.02026310	     90.00000001	      0.00000000	      0.00000000
      2.57000000	     -0.74510532	     -9.18440934	     -4.02107126	     -1.21310098	      0.82727078	      0.33484621	      7.62635750	      8.64243049	    -26.40080473	     21.42567446	     -2.58545420	      0.37394856	     20.36440919	     30.52376785	     -7.54008507	     24.72040273	    -22.88399221	    -30.76045158	     47.37031922	    -12.32040704	      0.82676804	     22.08613238	     27.38484487	     -7.54008507	    -26.52615856	      9.88622699	      2.34771735	     -7.16685777	     -2.52848013	    -11.32639432	    104.85909002	     90.00000001	      0.00000000	      0.00000000	      3.90511571	     -7.96580631	    -18.70395286	     51.68152486	     90.00000001	      0.00000000	      0.00000000
      2.58000000	     -0.88267145	     -9.25729118	     -4.18649112	     -1.21144223	      0.82696042	      0.33398182	      7.67334405	      8.66784513	    -26.24359069	     21.50299558	     -2.61873998	      0.37529807	     20.48572244	     30.42360788	     -7.53864855	     25.28779321	    -22.87656621	    -31.44068020	     46.05287832	    -12.26165995	      0.80377436	     22.08296016	     29.52733852	     -7.53864855	    -26.55243212	      9.86087057	      2.38065165	     -7.24693981	     -2.54438531	    -11.30480244	    104.92699163	     90.00000001	      0.00000000	      0.00000000	      3.95861333	     -7.99260639	    -18.68724821	     51.69142476	     90.00000001	      0.00000000	      0.00000000
      2.59000000	     -1.11841149	     -9.34267795	     -4.26874920	     -1.20980492	      0.82652284	      0.33295111	      7.79002723	      8.73706071	    -26.04612597	     21.45460834	     -2.64903336	      0.37445356	     20.61365958	     30.34729827	     -7.53786531	     25.97505597	    -22.80196812	    -31.48755770	     44.94517253	    -11.86310371	      0.78444124	     21.87888686	     30.42904028	     -7.53786531	    -26.43436935	      9.89196655	      2.30140671	     -7.34065889	     -2.53561658	    -11.30132936	    104.93121898	     90.00000001	      0.00000000	      0.00000000	      4.01466920	     -8.04418781	    -18.66693580	     51.57052155	     90.00000001	      0.00000000	      0.00000000
      2.60000000	     -1.31068629	     -9.51446823	     -4.42270383	     -1.20798623	      0.82614836	      0.33195766	      7.85302564	      8.86525141	    -25.93912063	     21.47111772	     -2.64980062	      0.37474170	     20.68135914	     30.23992728	     -7.53754519	     26.51445833	    -22.80204004	    -31.40734280	     43.97797510	    -11.46775923	      0.76756046	     21.78744415	     30.68119644	     -7.53754519	    -26.35318921	      9.97407383	      2.30757581	     -7.40924028	     -2.57909035	    -11.31634399	    104.94698637	     90.00000001	      0.00000000	      0.00000000	      3.99349517	     -8.05501578	    -18.65209623	     51.54552022	     90.00000001	      0.00000000	      0.00000000
      2.61000000	     -1.52076186	     -9.52456696	     -4.57460542	     -1.20617158	      0.82581533	      0.33077582	      7.94277273	      8.84644564	    -25.59351108	     21.45813617	     -2.68994901	      0.37451513	     20.90911698	     30.16710363	     -7.53666676	     27.03084217	    -22.61675784	    -31.57415429	     43.06887228	    -11.27270664	      0.75169363	     21.23423394	     32.36765360	     -7.53666676	    -26.21657361	      9.90819594	      2.26344537	     -7.47449564	     -2.56094781	    -11.39696270	    104.79536372	     90.00000001	      0.00000000	      0.00000000	      4.09285197	     -8.10130734	    -18.64790126	     51.22403772	     90.00000001	      0.00000000	      0.00000000
      2.62000000	     -1.63727287	     -9.62721384	     -4.77351032	     -1.20419090	      0.82561019	      0.32962161	      7.92209825	      8.92771017	    -25.36137274	     21.45786754	     -2.78819262	      0.37451044	     20.98356035	     30.10474297	     -7.53625454	     27.33528615	    -22.50622156	    -31.49548506	     42.33202485	    -10.99370907	      0.73883321	     21.09941306	     32.69818335	     -7.53625454	    -26.18633970	      9.90061257	      2.29921118	     -7.54760690	     -2.61425324	    -11.44538012	    104.75248835	     90.00000001	      0.00000000	      0.00000000	      4.08485090	     -8.11606439	    -18.64352013	     51.17379703	     90.00000001	      0.00000000	      0.00000000
      2.63000000	     -1.74416920	     -9.73555419	     -4.99689707	     -1.20199606	      0.82542797	      0.32840556	      7.85088221	      8.96461780	    -25.19286703	     21.45049179	     -2.79399057	      0.37438171	     21.05322706	     30.03493487	     -7.53599474	     27.56582794	    -22.43228832	    -31.39331803	     41.80599712	    -10.72344185	      0.72965230	     20.94842794	     32.82246436	     -7.53599474	    -26.11886266	      9.90194801	      2.30105688	     -7.60963654	     -2.62942958	    -11.50623006	    104.68144401	     90.00000001	      0.00000000	      0.00000000	      3.98998532	     -8.13856210	    -18.64441873	     51.07154415	     90.00000001	      0.00000000	      0.00000000
      2.64000000	     -1.74900580	     -9.69976084	     -5.26931457	     -1.19978630	      0.82556719	      0.32715344	      7.63336623	      8.89748274	    -24.67445269	     21.33405221	     -2.81145892	      0.37234945	     21.28729376	     29.99664201	     -7.53530370	     27.52905177	    -22.17216628	    -31.34901144	     41.24158511	    -10.51155892	      0.71980145	     20.41192787	     33.42682861	     -7.53530370	    -26.13749275	      9.70867794	      2.34273491	     -7.62124965	     -2.58727432	    -11.67828677	    104.45423739	     90.00000001	      0.00000000	      0.00000000	      4.07511352	     -8.19303684	    -18.66247237	     50.70413548	     90.00000001	      0.00000000	      0.00000000
